<svg width="20" height="20" viewBox="0 0 20 20" fill="none" xmlns="http://www.w3.org/2000/svg">
<g clip-path="url(#clip0_2595_3059)">
<path fill-rule="evenodd" clip-rule="evenodd" d="M16 10C16 11.777 15.2275 13.3736 14 14.4722C12.9385 15.4223 11.5367 16 10 16V20C11.4222 20 12.7751 19.7031 14 19.1679C17.5318 17.6248 20 14.1006 20 10C20 5.89936 17.5318 2.3752 14 0.832087C12.7751 0.296895 11.4222 0 10 0V4C11.5367 4 12.9385 4.57771 14 5.52779C15.2275 6.62643 16 8.223 16 10Z" fill="#3498DB"/>
<path fill-rule="evenodd" clip-rule="evenodd" d="M4 10C4 11.777 4.7725 13.3736 6 14.4722C7.06151 15.4223 8.46329 16 10 16V20C8.57779 20 7.22492 19.7031 6 19.1679C2.46819 17.6248 0 14.1006 0 10C0 5.89936 2.46819 2.3752 6 0.832087C7.22492 0.296895 8.57779 0 10 0V4C8.46329 4 7.06151 4.57771 6 5.52779C4.7725 6.62643 4 8.223 4 10Z" fill="#D9D9D9"/>
</g>
<defs>
<clipPath id="clip0_2595_3059">
<rect width="20" height="20" fill="white"/>
</clipPath>
</defs>
</svg>
