<svg width="800" height="800" viewBox="0 0 800 800" fill="none" xmlns="http://www.w3.org/2000/svg">
<g clip-path="url(#clip0_2612_3547)">
<path fill-rule="evenodd" clip-rule="evenodd" d="M335.902 389.604C341.581 389.604 346.185 394.208 346.185 399.887C346.185 427.337 368.437 449.589 395.887 449.589C409.14 449.589 421.161 444.415 430.08 435.957L444.233 450.88C431.645 462.817 414.612 470.155 395.887 470.155C357.079 470.155 325.618 438.695 325.618 399.887C325.618 394.208 330.222 389.604 335.902 389.604ZM479.54 468.271C484.745 473.77 484.507 482.448 479.007 487.653C457.706 507.815 428.913 520.2 397.258 520.2C389.685 520.2 383.547 514.061 383.547 506.489C383.547 498.916 389.685 492.778 397.258 492.778C421.627 492.778 443.746 483.271 460.157 467.738C465.656 462.533 474.335 462.772 479.54 468.271ZM309.74 507.667C303.955 502.781 295.304 503.512 290.419 509.298C285.535 515.084 286.265 523.735 292.051 528.619C321.284 553.3 359.092 568.188 400.343 568.188C441.593 568.188 479.401 553.3 508.635 528.619C514.421 523.735 515.151 515.084 510.266 509.298C505.381 503.512 496.731 502.781 490.945 507.667C466.474 528.326 434.879 540.766 400.343 540.766C365.806 540.766 334.212 528.326 309.74 507.667Z" fill="#63A746"/>
<path fill-rule="evenodd" clip-rule="evenodd" d="M259.806 400.23C259.806 322.614 322.727 259.693 400.343 259.693C407.915 259.693 414.054 253.555 414.054 245.982C414.054 238.41 407.915 232.271 400.343 232.271C307.582 232.271 232.385 307.469 232.385 400.23C232.385 435.716 243.397 468.636 262.176 495.751C260.213 500.068 259.121 504.865 259.121 509.917C259.121 528.847 274.467 544.194 293.398 544.194C312.329 544.194 327.675 528.847 327.675 509.917C327.675 490.986 312.329 475.64 293.398 475.64C289.701 475.64 286.142 476.224 282.807 477.307C268.26 455.173 259.806 428.691 259.806 400.23Z" fill="#EB3333"/>
<path fill-rule="evenodd" clip-rule="evenodd" d="M204.277 400.23C204.277 294.217 290.217 208.277 396.23 208.277C435.97 208.277 472.891 220.354 503.521 241.039C502.403 244.776 501.803 248.737 501.803 252.838C501.803 275.554 520.219 293.97 542.936 293.97C547.104 293.97 551.127 293.35 554.918 292.198C575.909 322.972 588.182 360.168 588.182 400.23C588.182 438.248 577.146 473.638 558.11 503.431C556.057 506.644 553.909 509.794 551.673 512.874L576.168 537.368C579.984 532.368 583.597 527.203 586.994 521.887C609.447 486.747 622.459 444.982 622.459 400.23C622.459 351.399 606.988 306.181 580.681 269.211C582.86 264.194 584.069 258.657 584.069 252.838C584.069 230.121 565.653 211.705 542.936 211.705C537.049 211.705 531.451 212.942 526.388 215.169C489.577 189.232 444.682 174 396.23 174C271.286 174 170 275.286 170 400.23C170 525.173 271.286 626.459 396.23 626.459C457.251 626.459 512.656 602.278 553.333 563.013L606.449 616.129C611.804 621.483 620.485 621.484 625.839 616.129C631.194 610.775 631.194 602.093 625.839 596.739L571.895 542.794L571.896 542.792L547.506 518.402L547.504 518.404L429.826 400.726C428.153 399.053 426.076 397.841 423.796 397.209L405.111 392.026C403.057 391.456 401.166 393.347 401.736 395.401L406.919 414.086C407.551 416.366 408.763 418.443 410.436 420.116L529.091 538.77C494.588 571.869 447.797 592.182 396.23 592.182C290.217 592.182 204.277 506.242 204.277 400.23Z" fill="#090B0F"/>
<path fill-rule="evenodd" clip-rule="evenodd" d="M305.738 401.258C305.738 350.713 346.713 309.738 397.258 309.738C412.543 309.738 426.954 313.485 439.62 320.111C439.487 321.205 439.419 322.319 439.419 323.449C439.419 338.593 451.696 350.871 466.841 350.871C469.022 350.871 471.144 350.616 473.179 350.135C483.028 364.732 488.778 382.324 488.778 401.258C488.778 415.504 485.533 428.957 479.749 440.951L499.594 460.795C500.577 459.839 501.432 458.718 502.115 457.445C511.105 440.698 516.2 421.553 516.2 401.258C516.2 374.963 507.667 350.66 493.218 330.969C493.898 328.579 494.262 326.057 494.262 323.449C494.262 308.305 481.985 296.027 466.841 296.027C463.162 296.027 459.652 296.752 456.446 298.066C439.016 288.046 418.806 282.316 397.258 282.316C331.568 282.316 278.316 335.569 278.316 401.258C278.316 408.831 284.454 414.969 292.027 414.969C299.599 414.969 305.738 408.831 305.738 401.258ZM536.873 498.074L517.171 478.372C532.147 456.031 540.879 429.168 540.879 400.23C540.879 392.657 547.018 386.519 554.59 386.519C562.163 386.519 568.301 392.657 568.301 400.23C568.301 436.715 556.652 470.519 536.873 498.074ZM462.142 423.343L445.17 406.372C445.446 404.252 445.589 402.088 445.589 399.887C445.589 372.437 423.337 350.185 395.887 350.185C390.208 350.185 385.604 345.581 385.604 339.902C385.604 334.223 390.208 329.619 395.887 329.619C434.695 329.619 466.155 361.079 466.155 399.887C466.155 408.096 464.743 415.995 462.142 423.343Z" fill="url(#paint0_linear_2612_3547)"/>
</g>
<defs>
<linearGradient id="paint0_linear_2612_3547" x1="281.744" y1="285.744" x2="564.873" y2="497.577" gradientUnits="userSpaceOnUse">
<stop stop-color="#4545FF"/>
<stop offset="1" stop-color="#4545CD"/>
</linearGradient>
<clipPath id="clip0_2612_3547">
<rect width="460" height="452.459" fill="white" transform="translate(170 174)"/>
</clipPath>
</defs>
</svg>
